<svg xmlns="http://www.w3.org/2000/svg" viewBox="0 0 260 80" role="img" aria-label="Universidad Icesi">
  <g transform="translate(40,40)">
    <g fill="#4B49D3">
      <rect x="-2.8" y="16" width="5.6" height="14" rx="1.4" transform="rotate(0)"/>
      <rect x="-2.2" y="16" width="4.4" height="10" rx="1.2" transform="rotate(12.86)"/>
      <rect x="-2.8" y="16" width="5.6" height="14" rx="1.4" transform="rotate(25.71)"/>
      <rect x="-2.2" y="16" width="4.4" height="10" rx="1.2" transform="rotate(38.57)"/>
      <rect x="-2.8" y="16" width="5.6" height="14" rx="1.4" transform="rotate(51.43)"/>
      <rect x="-2.2" y="16" width="4.4" height="10" rx="1.2" transform="rotate(64.29)"/>
      <rect x="-2.8" y="16" width="5.6" height="14" rx="1.4" transform="rotate(77.14)"/>
      <rect x="-2.2" y="16" width="4.4" height="10" rx="1.2" transform="rotate(90)"/>
      <rect x="-2.8" y="16" width="5.6" height="14" rx="1.4" transform="rotate(102.86)"/>
      <rect x="-2.2" y="16" width="4.4" height="10" rx="1.2" transform="rotate(115.71)"/>
      <rect x="-2.8" y="16" width="5.6" height="14" rx="1.4" transform="rotate(128.57)"/>
      <rect x="-2.2" y="16" width="4.4" height="10" rx="1.2" transform="rotate(141.43)"/>
      <rect x="-2.8" y="16" width="5.6" height="14" rx="1.4" transform="rotate(154.29)"/>
      <rect x="-2.2" y="16" width="4.4" height="10" rx="1.2" transform="rotate(167.14)"/>
      <rect x="-2.8" y="16" width="5.6" height="14" rx="1.4" transform="rotate(180)"/>
      <rect x="-2.2" y="16" width="4.4" height="10" rx="1.2" transform="rotate(192.86)"/>
      <rect x="-2.8" y="16" width="5.6" height="14" rx="1.4" transform="rotate(205.71)"/>
      <rect x="-2.2" y="16" width="4.4" height="10" rx="1.2" transform="rotate(218.57)"/>
      <rect x="-2.8" y="16" width="5.6" height="14" rx="1.4" transform="rotate(231.43)"/>
      <rect x="-2.2" y="16" width="4.4" height="10" rx="1.2" transform="rotate(244.29)"/>
      <rect x="-2.8" y="16" width="5.6" height="14" rx="1.4" transform="rotate(257.14)"/>
      <rect x="-2.2" y="16" width="4.4" height="10" rx="1.2" transform="rotate(270)"/>
      <rect x="-2.8" y="16" width="5.6" height="14" rx="1.4" transform="rotate(282.86)"/>
      <rect x="-2.2" y="16" width="4.4" height="10" rx="1.2" transform="rotate(295.71)"/>
      <rect x="-2.8" y="16" width="5.6" height="14" rx="1.4" transform="rotate(308.57)"/>
      <rect x="-2.2" y="16" width="4.4" height="10" rx="1.2" transform="rotate(321.43)"/>
      <rect x="-2.8" y="16" width="5.6" height="14" rx="1.4" transform="rotate(334.29)"/>
      <rect x="-2.2" y="16" width="4.4" height="10" rx="1.2" transform="rotate(347.14)"/>
    </g>
    <circle cx="0" cy="0" r="14.5" fill="white"/>
  </g>
  <text x="88" y="30" font-family="-apple-system,BlinkMacSystemFont,'Segoe UI',sans-serif" font-size="16" fill="#4B49D3">Universidad</text>
  <text x="84" y="65" font-family="-apple-system,BlinkMacSystemFont,'Segoe UI',sans-serif" font-size="40" font-weight="800" fill="#4B49D3" letter-spacing="-1">IceSI</text>
</svg>
