<svg xmlns="http://www.w3.org/2000/svg" viewBox="0 0 140 44" role="img" aria-label="Universidad Icesi">
  <g transform="translate(26,22)">
    <circle cx="0" cy="0" r="5" fill="#4349c8"/>
    <g stroke="#4349c8" stroke-linecap="round">
      <line x1="0" y1="7"  x2="0"  y2="13" stroke-width="3.5" transform="rotate(0)"/>
      <line x1="0" y1="7"  x2="0"  y2="11" stroke-width="2.5" transform="rotate(15)"/>
      <line x1="0" y1="7"  x2="0"  y2="13" stroke-width="3.5" transform="rotate(30)"/>
      <line x1="0" y1="7"  x2="0"  y2="11" stroke-width="2.5" transform="rotate(45)"/>
      <line x1="0" y1="7"  x2="0"  y2="13" stroke-width="3.5" transform="rotate(60)"/>
      <line x1="0" y1="7"  x2="0"  y2="11" stroke-width="2.5" transform="rotate(75)"/>
      <line x1="0" y1="7"  x2="0"  y2="13" stroke-width="3.5" transform="rotate(90)"/>
      <line x1="0" y1="7"  x2="0"  y2="11" stroke-width="2.5" transform="rotate(105)"/>
      <line x1="0" y1="7"  x2="0"  y2="13" stroke-width="3.5" transform="rotate(120)"/>
      <line x1="0" y1="7"  x2="0"  y2="11" stroke-width="2.5" transform="rotate(135)"/>
      <line x1="0" y1="7"  x2="0"  y2="13" stroke-width="3.5" transform="rotate(150)"/>
      <line x1="0" y1="7"  x2="0"  y2="11" stroke-width="2.5" transform="rotate(165)"/>
      <line x1="0" y1="7"  x2="0"  y2="13" stroke-width="3.5" transform="rotate(180)"/>
      <line x1="0" y1="7"  x2="0"  y2="11" stroke-width="2.5" transform="rotate(195)"/>
      <line x1="0" y1="7"  x2="0"  y2="13" stroke-width="3.5" transform="rotate(210)"/>
      <line x1="0" y1="7"  x2="0"  y2="11" stroke-width="2.5" transform="rotate(225)"/>
      <line x1="0" y1="7"  x2="0"  y2="13" stroke-width="3.5" transform="rotate(240)"/>
      <line x1="0" y1="7"  x2="0"  y2="11" stroke-width="2.5" transform="rotate(255)"/>
      <line x1="0" y1="7"  x2="0"  y2="13" stroke-width="3.5" transform="rotate(270)"/>
      <line x1="0" y1="7"  x2="0"  y2="11" stroke-width="2.5" transform="rotate(285)"/>
      <line x1="0" y1="7"  x2="0"  y2="13" stroke-width="3.5" transform="rotate(300)"/>
      <line x1="0" y1="7"  x2="0"  y2="11" stroke-width="2.5" transform="rotate(315)"/>
      <line x1="0" y1="7"  x2="0"  y2="13" stroke-width="3.5" transform="rotate(330)"/>
      <line x1="0" y1="7"  x2="0"  y2="11" stroke-width="2.5" transform="rotate(345)"/>
    </g>
  </g>
  <text x="54" y="18" font-family="system-ui,sans-serif" font-size="8" fill="#4349c8" letter-spacing="0.5">Universidad</text>
  <text x="54" y="32" font-family="system-ui,sans-serif" font-size="14" font-weight="800" fill="#4349c8" letter-spacing="-0.3">IceSI</text>
</svg>
