<svg xmlns="http://www.w3.org/2000/svg" viewBox="0 0 100 100" role="img" aria-label="Universidad Nacional de Colombia">
  <circle cx="50" cy="50" r="49" fill="white"/>
  <circle cx="50" cy="50" r="49" fill="none" stroke="#ddd" stroke-width="0.5"/>
  <defs>
    <path id="arc-top" d="M8,50 A42,42 0 0,1 92,50"/>
  </defs>
  <text font-family="Arial,sans-serif" font-size="7" font-weight="600" fill="#555" letter-spacing="2.1">
    <textPath href="#arc-top">UNIVERSIDAD NACIONAL DE COLOMBIA</textPath>
  </text>
  <path d="M35,28 L65,28 L65,56 Q65,74 50,80 Q35,74 35,56 Z" fill="#777"/>
  <path d="M35,28 L50,28 L50,56 L35,56 Z" fill="#8B1A2B"/>
  <path d="M50,56 L65,56 Q65,74 50,80 Z" fill="#8B1A2B"/>
  <path d="M50,28 L65,28 L65,56 L50,56 Z" fill="#5a5a5a"/>
  <path d="M35,56 L50,56 Q50,80 35,74 Z" fill="#5a5a5a"/>
  <line x1="50" y1="28" x2="50" y2="78" stroke="white" stroke-width="1"/>
  <line x1="35" y1="56" x2="65" y2="56" stroke="white" stroke-width="1"/>
  <path d="M44,48 L56,48 L56,56 Q56,62 50,65 Q44,62 44,56 Z" fill="#2a6b2a"/>
  <text x="37" y="50" font-family="serif" font-size="9" fill="white">⚖</text>
  <text x="52" y="50" font-family="serif" font-size="9" fill="white">⚕</text>
  <text x="37" y="72" font-family="serif" font-size="9" fill="white">π</text>
  <text x="53" y="72" font-family="serif" font-size="8" fill="white">♪</text>
  <text x="50" y="92" font-family="Arial,sans-serif" font-size="7.5" font-weight="700" fill="#555" text-anchor="middle" letter-spacing="1">1867</text>
  <circle cx="24" cy="89" r="1.8" fill="#888"/>
  <circle cx="76" cy="89" r="1.8" fill="#888"/>
</svg>
